HIERARCHY
ROOT Hips
{
	OFFSET	0.00	0.00	0.00
	CHANNELS 6 Xposition Yposition Zposition Zrotation Xrotation Yrotation
	JOINT LeftUpLeg
	{
		OFFSET	 0.126116	-0.014019	-0.065224
		CHANNELS 3 Zrotation Xrotation Yrotation
		JOINT LeftLeg
		{
			OFFSET	 0.000000	 0.000000	 0.569914
			CHANNELS 3 Zrotation Xrotation Yrotation
			JOINT LeftFoot
			{
				OFFSET	 0.000000	 0.000000	 0.544423
				CHANNELS 3 Zrotation Xrotation Yrotation
				JOINT LeftToeBase
				{
					OFFSET	 0.000000	 0.000000	 0.207117
					CHANNELS 3 Zrotation Xrotation Yrotation
					End Site
					{
						OFFSET	 0.000000	 0.000000	 0.207117
					}
				}
			}
		}
	}
	JOINT RightUpLeg
	{
		OFFSET	-0.124023	-0.008373	-0.065224
		CHANNELS 3 Zrotation Xrotation Yrotation
		JOINT RightLeg
		{
			OFFSET	 0.000000	 0.000000	 0.570047
			CHANNELS 3 Zrotation Xrotation Yrotation
			JOINT RightFoot
			{
				OFFSET	 0.000000	 0.000000	 0.544354
				CHANNELS 3 Zrotation Xrotation Yrotation
				JOINT RightToeBase
				{
					OFFSET	 0.000000	 0.000000	 0.207540
					CHANNELS 3 Zrotation Xrotation Yrotation
					End Site
					{
						OFFSET	 0.000000	 0.000000	 0.207540
					}
				}
			}
		}
	}
	JOINT Spine
	{
		OFFSET	 0.000184	-0.007763	 0.117403
		CHANNELS 3 Zrotation Xrotation Yrotation
		JOINT Spine1
		{
			OFFSET	 0.000000	 0.000000	 0.137269
			CHANNELS 3 Zrotation Xrotation Yrotation
			JOINT Spine2
			{
				OFFSET	 0.000000	 0.000000	 0.156879
				CHANNELS 3 Zrotation Xrotation Yrotation
				JOINT LeftShoulder
				{
					OFFSET	 0.080501	-0.002496	 0.160144
					CHANNELS 3 Zrotation Xrotation Yrotation
					JOINT LeftArm
					{
						OFFSET	 0.000000	 0.000000	 0.164363
						CHANNELS 3 Zrotation Xrotation Yrotation
						JOINT LeftForeArm
						{
							OFFSET	 0.000000	 0.000000	 0.364576
							CHANNELS 3 Zrotation Xrotation Yrotation
							JOINT LeftHand
							{
								OFFSET	 0.000000	 0.000000	 0.360812
								CHANNELS 3 Zrotation Xrotation Yrotation
								JOINT LeftHandIndex1
								{
									OFFSET	 0.000000	 0.000000	 0.086006
									CHANNELS 3 Zrotation Xrotation Yrotation
									JOINT LeftHandIndex2
									{
										OFFSET	 0.000000	 0.000000	 0.047236
										CHANNELS 3 Zrotation Xrotation Yrotation
										JOINT LeftHandIndex3
										{
											OFFSET	-0.004284	-0.000551	 0.038166
											CHANNELS 3 Zrotation Xrotation Yrotation
											End Site
											{
												OFFSET	-0.004284	-0.000551	 0.038166
											}
										}
									}
								}
							}
						}
					}
				}
				JOINT Neck
				{
					OFFSET	 0.000000	 0.000000	 0.176489
					CHANNELS 3 Zrotation Xrotation Yrotation
					JOINT Head
					{
						OFFSET	 0.000000	-0.001747	 0.077940
						CHANNELS 3 Zrotation Xrotation Yrotation
						End Site
						{
							OFFSET	 0.000000	-0.001747	 0.077940
						}
					}
				}
				JOINT RightShoulder
				{
					OFFSET	-0.080363	 0.000306	 0.159706
					CHANNELS 3 Zrotation Xrotation Yrotation
					JOINT RightArm
					{
						OFFSET	 0.000000	 0.000000	 0.164196
						CHANNELS 3 Zrotation Xrotation Yrotation
						JOINT RightForeArm
						{
							OFFSET	 0.000000	 0.000000	 0.365611
							CHANNELS 3 Zrotation Xrotation Yrotation
							JOINT RightHand
							{
								OFFSET	 0.000000	 0.000000	 0.360648
								CHANNELS 3 Zrotation Xrotation Yrotation
								JOINT RightHandIndex1
								{
									OFFSET	 0.000000	 0.000000	 0.069977
									CHANNELS 3 Zrotation Xrotation Yrotation
									JOINT RightHandIndex2
									{
										OFFSET	 0.000000	 0.000000	 0.052305
										CHANNELS 3 Zrotation Xrotation Yrotation
										JOINT RightHandIndex3
										{
											OFFSET	 0.009002	-0.000782	 0.042196
											CHANNELS 3 Zrotation Xrotation Yrotation
											End Site
											{
												OFFSET	 0.009002	-0.000782	 0.042196
											}
										}
									}
								}
							}
						}
					}
				}
			}
		}
	}
}
MOTION
Frames:    8
Frame Time: 0.03333334
-0.120007	 6.652122	 0.351871	 3.895400	 0.659733	 3.703446	 5.054343	-3.972333	 176.476700	-11.253240	-33.732910	-5.159702	 171.895600	 86.596240	 179.442400	-2.377671	 30.142240	-0.036949	 1.767211	-12.660140	 178.944300	 3.656035	-47.622350	 5.718332	-175.355100	 82.127970	-178.702900	 2.403734	 22.108450	-0.130919	-7.896361	 1.895378	-2.037235	-12.202580	-0.289087	-0.828449	-14.232520	-1.918216	-1.184140	-91.809780	 77.621440	 179.120800	 36.794950	 69.876910	-39.839090	-7.986489	-3.991814	-19.852960	 5.643491	-5.069800	-5.351620	-3.812334	 37.924440	-2.927599	-2.450526	 36.184240	 0.754587	-1.378229	 35.397820	-2.634230	 0.544316	 6.074612	-3.202886	-3.349173	-13.569900	-2.605026	 89.765530	 79.254690	-179.645900	-36.428960	 70.322090	 39.114620	 4.237144	-7.817631	 30.758860	-10.829760	-6.020747	 9.635118	 6.437017	 35.671460	-0.771858	 2.830251	 35.756010	-7.813440	-2.350882	 35.473990	 5.254307
-0.118413	 6.657591	 0.351157	 4.201731	 0.748800	 3.725382	 5.022328	-4.211247	 176.516400	-11.077040	-34.045660	-5.121319	 171.974500	 86.291390	 179.503000	-2.376269	 30.406230	-0.042809	 1.807541	-12.791300	 178.974200	 3.765071	-47.919830	 5.866032	-175.832800	 81.735900	-178.160300	 2.403613	 22.175280	-0.129573	-7.886275	 2.034556	-2.105605	-12.206910	-0.116063	-0.826854	-14.276520	-1.716932	-1.162791	-91.809410	 77.596590	 179.153500	 36.598220	 69.818210	-39.585440	-8.117990	-4.016237	-20.403370	 5.534093	-5.061266	-5.354512	-3.812334	 37.924440	-2.927599	-2.450526	 36.184240	 0.754587	-1.378229	 35.397820	-2.634230	 0.465968	 5.885056	-3.358191	-3.408731	-13.299090	-2.411952	 89.764360	 79.277320	-179.628900	-36.268630	 70.448610	 39.029140	 4.315266	-7.723804	 30.276750	-10.891250	-6.022549	 9.634142	 6.437017	 35.671460	-0.771858	 2.830251	 35.756010	-7.813440	-2.350882	 35.473990	 5.254307
-0.116304	 6.664143	 0.350447	 4.308858	 0.820111	 3.728247	 5.007009	-4.456289	 176.574800	-10.891000	-34.398280	-5.070184	 172.010600	 85.991610	 179.632700	-2.375038	 30.632370	-0.047840	 1.897355	-13.130020	 178.979200	 4.107456	-48.660550	 6.274720	-176.174400	 81.352730	-177.624900	 2.403108	 22.453660	-0.123940	-7.843818	 2.221916	-2.073825	-12.176270	 0.019384	-0.861757	-14.270960	-1.570486	-1.144112	-91.806380	 77.654880	 179.180500	 36.598340	 69.684320	-39.722970	-8.237134	-4.009665	-20.801200	 5.414775	-5.052197	-5.357307	-3.812334	 37.924440	-2.927599	-2.450526	 36.184240	 0.754587	-1.378229	 35.397820	-2.634230	 0.421741	 5.546731	-3.513000	-3.440353	-13.035300	-2.295846	 89.764950	 79.215040	-179.618700	-36.329330	 70.516620	 39.258170	 4.305216	-7.675485	 29.879550	-11.016180	-6.026172	 9.632201	 6.437017	 35.671460	-0.771858	 2.830251	 35.756010	-7.813440	-2.350882	 35.473990	 5.254307
-0.112769	 6.663970	 0.349652	 4.204656	 0.838360	 3.614044	 5.154954	-4.669761	 176.775700	-10.794690	-34.736460	-4.954568	 172.370100	 85.710560	 179.528300	-2.374268	 30.772900	-0.050977	 2.164277	-13.975790	 179.131000	 4.433993	-50.252010	 6.925087	-176.282500	 81.137020	-177.323300	 2.400933	 23.500490	-0.102646	-7.830637	 2.614138	-1.843019	-12.255910	 0.173386	-0.860915	-14.411070	-1.396608	-1.133612	-91.800180	 77.781100	 179.243000	 36.655590	 69.482770	-40.066820	-8.340343	-3.982790	-21.063700	 5.306061	-5.044543	-5.359668	-3.812334	 37.924440	-2.927599	-2.450526	 36.184240	 0.754587	-1.378229	 35.397820	-2.634230	 0.154683	 5.591204	-3.192406	-3.685544	-13.120550	-2.814904	 89.767680	 79.082730	-179.629000	-36.457800	 70.583790	 39.673110	 4.341030	-7.631194	 29.527600	-11.142670	-6.029316	 9.630505	 6.437017	 35.671460	-0.771858	 2.830251	 35.756010	-7.813440	-2.350882	 35.473990	 5.254307
-0.108436	 6.663810	 0.348729	 3.974236	 0.861100	 3.275354	 5.568498	-4.786523	 177.151400	-10.904390	-34.963250	-4.764810	 173.968500	 85.490370	 178.286400	-2.373177	 30.967220	-0.055328	 2.278623	-15.608630	 179.590500	 5.064955	-53.064220	 7.900354	-176.118600	 81.295460	-177.372100	 2.394540	 25.812220	-0.054824	-7.757107	 3.144271	-1.357974	-12.266680	 0.281471	-0.783618	-14.425700	-1.302937	-1.122989	-91.793190	 77.958290	 179.301700	 36.787930	 69.213780	-40.693310	-8.438946	-3.936457	-21.167030	 5.213258	-5.041481	-5.361017	-3.812334	 37.924440	-2.927599	-2.450526	 36.184240	 0.754587	-1.378229	 35.397820	-2.634230	 0.019211	 5.450556	-3.175939	-3.778929	-13.223680	-2.995994	 89.772480	 78.894900	-179.682400	-36.706070	 70.630050	 40.275530	 4.417400	-7.568599	 29.224350	-11.222480	-6.032144	 9.628849	 6.437017	 35.671460	-0.771858	 2.830251	 35.756010	-7.813440	-2.350882	 35.473990	 5.254307
-0.103352	 6.663562	 0.347467	 3.559535	 0.899154	 2.698286	 6.154085	-4.722998	 177.785100	-11.227040	-34.980560	-4.533604	 175.407800	 85.370900	 177.201200	-2.371470	 31.265010	-0.062019	 2.450969	-18.365690	-179.633500	 6.404562	-57.481010	 9.752257	-175.437900	 82.297220	-177.883200	 2.375103	 30.341780	 0.042828	-7.603819	 3.665158	-0.619033	-12.200080	 0.430133	-0.593501	-14.344640	-1.231276	-1.107649	-91.785900	 78.187690	 179.338500	 36.895720	 68.885510	-41.479840	-8.527823	-3.878004	-21.097710	 5.157650	-5.044233	-5.360526	-3.812334	 37.924440	-2.927599	-2.450526	 36.184240	 0.754587	-1.378229	 35.397820	-2.634230	-0.026810	 5.342675	-3.257437	-3.795065	-13.441780	-3.124907	 89.776330	 78.659320	-179.707200	-37.059880	 70.653590	 41.002550	 4.513299	-7.507867	 29.030340	-11.266900	-6.032930	 9.628542	 6.437017	 35.671460	-0.771858	 2.830251	 35.756010	-7.813440	-2.350882	 35.473990	 5.254307
-0.097745	 6.663115	 0.345733	 3.019959	 0.925796	 2.008382	 6.756756	-4.412707	 178.626900	-11.691570	-34.702610	-4.302782	 176.477000	 85.383230	 176.403700	-2.369844	 31.540550	-0.068241	 2.798385	-22.145900	-178.719600	 9.170089	-63.352970	 13.231170	-173.223600	 84.633710	-179.836400	 2.347376	 34.600660	 0.140934	-7.420208	 4.198133	 0.200898	-12.090720	 0.559252	-0.325437	-14.210500	-1.202914	-1.093668	-91.780080	 78.383340	 179.370900	 36.943780	 68.504330	-42.320290	-8.563730	-3.818301	-20.854230	 5.163637	-5.052530	-5.358286	-3.812334	 37.924440	-2.927599	-2.450526	 36.184240	 0.754587	-1.378229	 35.397820	-2.634230	-0.023956	 5.306176	-3.378495	-3.777156	-13.820200	-3.233415	 89.779170	 78.457790	-179.730000	-37.535980	 70.646970	 41.838990	 4.593182	-7.454594	 28.933090	-11.287190	-6.033503	 9.628231	 6.437017	 35.671460	-0.771858	 2.830251	 35.756010	-7.813440	-2.350882	 35.473990	 5.254307
-0.092033	 6.661721	 0.343626	 2.410005	 0.966968	 1.348111	 7.509866	-3.856418	 179.403900	-12.207380	-34.076300	-3.974910	 177.769700	 85.466380	 175.443400	-2.365973	 32.172480	-0.082606	 3.163481	-26.738160	-177.980300	 15.689960	-69.385860	 20.340390	-170.838300	 88.288110	 178.409700	 2.370887	 31.099750	 0.059785	-7.242406	 4.618930	 0.964956	-11.950560	 0.755721	-0.005375	-14.016910	-1.183515	-1.076249	-91.776250	 78.523830	 179.345900	 36.817000	 68.053500	-43.004720	-8.605245	-3.726017	-20.454300	 5.140223	-5.061680	-5.356167	-3.812334	 37.924440	-2.927599	-2.450526	 36.184240	 0.754587	-1.378229	 35.397820	-2.634230	 0.012038	 5.304618	-3.508438	-3.711432	-14.229430	-3.295948	 89.780660	 78.321400	-179.717300	-38.236910	 70.601330	 42.935370	 4.601615	-7.420335	 28.872020	-11.334560	-6.015026	 9.637122	 6.437017	 35.671460	-0.771858	 2.830251	 35.756010	-7.813440	-2.350882	 35.473990	 5.254307
